# .PCD v0.7 - Point Cloud Data file format
VERSION 0.7
FIELDS x y z
SIZE 4 4 4
TYPE F F F
COUNT 1 1 1
WIDTH 40
HEIGHT 1
VIEWPOINT 0 0 0 1 0 0 0
POINTS 40
DATA ascii
0.30521217 -0.1358984 0
0.30170253 -0.13041659 0
0.30266112 -0.1238317 0
0.30469021 -0.11620951 0
0.30657563 -0.10857445 0
0.30864799 -0.10104114 0
0.31046465 -0.093449123 0
0.3124415 -0.085923374 0
0.31425864 -0.079091392 0
0.31509426 -0.075656839 0
0.31625646 -0.071570531 0
0.31826252 -0.064036585 0
0.32027164 -0.05648116 0
0.32185134 -0.050985247 0
0.32295296 -0.046835095 0
0.32451731 -0.041292049 0
0.32672337 -0.033626426 0
0.32867673 -0.025875518 0
0.32973748 -0.020899741 0
0.33027741 -0.017319173 0
0.33094156 -0.011567151 0
0.33065429 -0.003620141 0
0.32931462 0.0057366453 0
0.33009216 0.0021497186 0
0.32813424 0.011445759 0
0.32634884 0.018518362 0
0.32440731 0.02623 0
0.32217085 0.035983652 0
0.32304874 0.032517672 0
0.32131562 0.040864661 0
0.31975201 0.048488479 0
0.31825623 0.056105472 0
0.31677142 0.063716628 0
0.3147589 0.073379532 0
0.31547424 0.069927178 0
0.31368068 0.0789259 0
0.31217474 0.086561933 0
0.31081495 0.093534395 0
0.3093746 0.10125922 0
0.30985901 0.10896073 0
