# .PCD v0.7 - Point Cloud Data file format
VERSION 0.7
FIELDS x y z
SIZE 4 4 4
TYPE F F F
COUNT 1 1 1
WIDTH 55
HEIGHT 1
VIEWPOINT 0 0 0 1 0 0 0
POINTS 55
DATA ascii
0.1644004 -0.080634385 0
0.16657694 -0.077235587 0
0.17007203 -0.073508576 0
0.17475654 -0.069717728 0
0.17848052 -0.066734903 0
0.18299125 -0.062999204 0
0.18708359 -0.059441142 0
0.1913396 -0.055758696 0
0.19889052 -0.049574897 0
0.20353037 -0.045592926 0
0.20706511 -0.042123236 0
0.21035206 -0.038517848 0
0.21372882 -0.033843968 0
0.2168006 -0.029511867 0
0.22102848 -0.026150484 0
0.22506118 -0.022669397 0
0.22928755 -0.019042479 0
0.23319919 -0.015291957 0
0.23668985 -0.011361709 0
0.24388804 -0.0047814553 0
0.2492488 -0.00055003801 0
0.25242212 0.002198918 0
0.25633749 0.0055890358 0
0.26028985 0.0090850638 0
0.26396087 0.012673578 0
0.26782027 0.017553801 0
0.27066377 0.021292584 0
0.26973817 0.029531855 0
0.27054012 0.025445359 0
0.26689863 0.03393168 0
0.25974154 0.041700602 0
0.26339701 0.03818145 0
0.25169116 0.048899557 0
0.25605166 0.045139551 0
0.23896943 0.059018228 0
0.24395022 0.055174708 0
0.23055863 0.065554805 0
0.23515622 0.061894543 0
0.22381423 0.0737921 0
0.22692005 0.069904588 0
0.21664169 0.081527725 0
0.22034648 0.078010671 0
0.20780554 0.088192806 0
0.21305276 0.084442906 0
0.19920798 0.094463237 0
0.20407374 0.090848155 0
0.19206978 0.10157125 0
0.19572605 0.097575657 0
0.18583606 0.11000177 0
0.18810172 0.10641229 0
0.17866549 0.11880492 0
0.18202986 0.11483908 0
0.17148089 0.12629957 0
0.17497711 0.12250535 0
0.16835123 0.12975511 0
