# .PCD v0.7 - Point Cloud Data file format
VERSION 0.7
FIELDS x y z
SIZE 4 4 4
TYPE F F F
COUNT 1 1 1
WIDTH 40
HEIGHT 1
VIEWPOINT 0 0 0 1 0 0 0
POINTS 40
DATA ascii
0.21318276 -0.10805053 0
0.21531589 -0.10098068 0
0.21952568 -0.093751855 0
0.22356154 -0.087504454 0
0.22633523 -0.08350569 0
0.22960198 -0.078499392 0
0.23223959 -0.074347779 0
0.23444481 -0.070562564 0
0.23804188 -0.064343847 0
0.24035415 -0.060491405 0
0.24291481 -0.056082878 0
0.24642265 -0.050701398 0
0.24891633 -0.046701383 0
0.25281671 -0.041172862 0
0.25763148 -0.03391641 0
0.26133338 -0.028049488 0
0.26350418 -0.024220163 0
0.26679552 -0.018655514 0
0.26971754 -0.011784164 0
0.27017364 -0.0082635311 0
0.26967901 -0.0011865784 0
0.27069438 -0.0053244159 0
0.26811984 0.004080798 0
0.26461715 0.011535254 0
0.2608248 0.018794885 0
0.25703493 0.025864689 0
0.25250605 0.033783413 0
0.24672301 0.0440493 0
0.24874011 0.040497016 0
0.24432811 0.048585363 0
0.23916355 0.059066225 0
0.24111916 0.055100396 0
0.23670401 0.06396319 0
0.23188198 0.073101521 0
0.23366852 0.069760457 0
0.22922824 0.078356132 0
0.2240862 0.087694928 0
0.22622728 0.084009446 0
0.2214817 0.093430355 0
0.22169054 0.10161216 0
