# .PCD v0.7 - Point Cloud Data file format
VERSION 0.7
FIELDS x y z
SIZE 4 4 4
TYPE F F F
COUNT 1 1 1
WIDTH 40
HEIGHT 1
VIEWPOINT 0 0 0 1 0 0 0
POINTS 40
DATA ascii
0.21237588 -0.10017385 0
0.21498823 -0.09404242 0
0.21723516 -0.089433566 0
0.21951826 -0.08536955 0
0.22325364 -0.078513153 0
0.22706242 -0.071051188 0
0.2302222 -0.063850172 0
0.23186965 -0.059972476 0
0.23408882 -0.056201134 0
0.23805362 -0.050058518 0
0.24062277 -0.046234496 0
0.24366516 -0.041320711 0
0.24668241 -0.035223857 0
0.24808143 -0.031567074 0
0.24997742 -0.026276793 0
0.25289556 -0.019348292 0
0.25547215 -0.01563333 0
0.25852266 -0.011282006 0
0.26191002 -0.0068666684 0
0.26411852 -0.002886174 0
0.2623103 0.0068602813 0
0.26413244 0.0034467741 0
0.25908712 0.011290222 0
0.25316274 0.019351741 0
0.25587237 0.015641302 0
0.24924766 0.026181828 0
0.24638531 0.03351884 0
0.24348852 0.041278306 0
0.23914121 0.050821301 0
0.24088578 0.047358766 0
0.23609112 0.056118593 0
0.23071849 0.064513244 0
0.23316893 0.060835257 0
0.22484405 0.074133106 0
0.22718108 0.07052701 0
0.2220879 0.078628965 0
0.21623786 0.087904111 0
0.21835673 0.08435633 0
0.2134708 0.0933633 0
0.2107057 0.099931121 0
