# .PCD v0.7 - Point Cloud Data file format
VERSION 0.7
FIELDS x y z
SIZE 4 4 4
TYPE F F F
COUNT 1 1 1
WIDTH 54
HEIGHT 1
VIEWPOINT 0 0 0 1 0 0 0
POINTS 54
DATA ascii
0.24613211 -0.090810262 0
0.24633363 -0.087238312 0
0.2478258 -0.083530769 0
0.25016955 -0.078882821 0
0.25331354 -0.072044455 0
0.2550025 -0.068335302 0
0.25625759 -0.063898869 0
0.25880855 -0.056198575 0
0.26130635 -0.049615037 0
0.26328859 -0.045840561 0
0.26615587 -0.040963877 0
0.26932067 -0.036062367 0
0.27140546 -0.032728799 0
0.27502814 -0.02708889 0
0.27754274 -0.023070622 0
0.27996734 -0.018964099 0
0.28361422 -0.012386859 0
0.28561652 -0.0087354202 0
0.28800729 -0.0037682636 0
0.29150376 0.0025366063 0
0.29296803 0.0057443408 0
0.29643774 0.010999712 0
0.29938963 0.015680429 0
0.30139256 0.019088745 0
0.30508381 0.026021115 0
0.30719757 0.03092267 0
0.30845293 0.034454331 0
0.30910158 0.041371543 0
0.30632055 0.049873501 0
0.30753601 0.04595067 0
0.30282065 0.056790382 0
0.29833627 0.064760238 0
0.30054507 0.061135467 0
0.29458201 0.071386598 0
0.29043233 0.078484349 0
0.28411883 0.088889584 0
0.28653207 0.084860459 0
0.28116563 0.094059542 0
0.27621603 0.10257327 0
0.27812606 0.099160597 0
0.27281946 0.10882862 0
0.26838672 0.11668422 0
0.27020934 0.11329585 0
0.26219821 0.12645657 0
0.26447096 0.12260637 0
0.25962344 0.1308458 0
0.25386247 0.14070477 0
0.25609037 0.13686974 0
0.25067535 0.14617573 0
0.24563329 0.15421988 0
0.24793065 0.150434 0
0.23954612 0.16385293 0
0.24181183 0.1600382 0
0.24083181 0.16705588 0
