# .PCD v0.7 - Point Cloud Data file format
VERSION 0.7
FIELDS x y z
SIZE 4 4 4
TYPE F F F
COUNT 1 1 1
WIDTH 52
HEIGHT 1
VIEWPOINT 0 0 0 1 0 0 0
POINTS 52
DATA ascii
0.24440357 -0.12186257 0
0.24182534 -0.11600304 0
0.24484457 -0.10901838 0
0.24701487 -0.104859 0
0.24928196 -0.10072172 0
0.252992 -0.0933391 0
0.25676802 -0.0859171 0
0.26078188 -0.079110913 0
0.26295105 -0.075407818 0
0.26540491 -0.071117871 0
0.26886362 -0.064554043 0
0.27076373 -0.060654737 0
0.27321151 -0.056210231 0
0.27614313 -0.050563544 0
0.2782611 -0.046572313 0
0.28093013 -0.041362401 0
0.2835784 -0.036083143 0
0.28586721 -0.031945478 0
0.28908145 -0.025928536 0
0.2920402 -0.021070326 0
0.29411024 -0.017349636 0
0.29782844 -0.011050529 0
0.3025986 -0.0033003741 0
0.30630311 0.0026657169 0
0.30794013 0.0060379235 0
0.30961192 0.01148058 0
0.30894762 0.018882042 0
0.30509013 0.0266759 0
0.30755278 0.022844791 0
0.29935765 0.036082201 0
0.30152917 0.032343302 0
0.29626521 0.040960681 0
0.29053897 0.049908426 0
0.29314867 0.04576372 0
0.28470847 0.059208877 0
0.28686813 0.055746187 0
0.28190884 0.063771635 0
0.27612561 0.073329464 0
0.27867001 0.06946823 0
0.27280763 0.078854643 0
0.26832077 0.086521357 0
0.2705417 0.082701914 0
0.26449299 0.093647398 0
0.26070401 0.10136832 0
0.25680941 0.1089954 0
0.25255719 0.11641537 0
0.24682771 0.12643126 0
0.24889164 0.12272652 0
0.24424171 0.13122334 0
0.2393502 0.14097537 0
0.24130353 0.13720629 0
0.23772663 0.14424323 0
